<svg xmlns="http://www.w3.org/2000/svg" viewBox="0 0 24 24" id="omega-watches">
  <path fill="#C62828" d="M23.74 18.061a.5.5 0 0 0-.679.198l-.406.741h-2.731c2.283-2.023 3.276-4.316 3.276-7.439 0-6.355-5.404-9.867-10.725-10.05a7.433 7.433 0 0 0-.932-.001C6.204 1.693.8 5.205.8 11.561c0 3.128.99 5.421 3.267 7.439H1.345l-.406-.74a.499.499 0 1 0-.877.481l1.648 3a.5.5 0 0 0 .437.259h7.584a.5.5 0 0 0 .443-.267l.156-.297a.5.5 0 0 0-.138-.63c-2.468-1.889-5.41-5.13-5.41-9.841 0-4.161 2.7-8.465 7.219-8.465 4.517 0 7.217 4.304 7.217 8.465 0 4.712-2.94 7.952-5.407 9.841a.503.503 0 0 0-.14.628l.154.297a.503.503 0 0 0 .445.269h7.585c.183 0 .351-.1.438-.26l1.646-3a.501.501 0 0 0-.199-.679z"></path>
  <path fill="#AC2323" d="M11.989 1.495c-.16 0-.315.005-.447.014C6.204 1.693.8 5.205.8 11.561c0 3.128.99 5.421 3.267 7.439H1.345l-.406-.74a.501.501 0 0 0-.939.225v.032a.492.492 0 0 0 .061.224l1.648 3a.502.502 0 0 0 .438.259h7.584a.5.5 0 0 0 .443-.267l.156-.297a.5.5 0 0 0-.138-.63c-2.468-1.889-5.41-5.13-5.41-9.841C4.782 6.804 7.481 2.5 12 2.5V1.495h-.011z"></path>
</svg>
