<svg xmlns="http://www.w3.org/2000/svg" viewBox="0 0 24 24" id="titan">
  <path d="M12.001 23a.722.722 0 0 1-.092-.006c-5.576-.684-8.11-3.646-9.254-6.011-1.757-3.632-1.268-7.901-.239-9.588a.747.747 0 0 1 .64-.359h4.381C5.493 4.759 3.232 4.2 1.746 3.833c-.547-.136-.979-.242-1.322-.407A.75.75 0 0 1 .75 2H12a.75.75 0 0 1 0 1.5H5.336c3.396 1.735 7.411 6.095 7.414 18.738a.766.766 0 0 1-.005.095v.002l-.001.011v.007a.747.747 0 0 1-.247.46s-.001.003-.002.002a.655.655 0 0 1-.073.056v.001h-.001a.759.759 0 0 1-.42.128zM8.243 8.115a.749.749 0 0 1-.387.364c-1.254.52-2.455 3.163-2.172 6.126.153 1.61 1.009 5.333 5.558 6.684-.11-6.65-1.367-10.681-2.999-13.174zm-4.728.421c-.62 1.469-.933 4.854.49 7.795a8.766 8.766 0 0 0 1.1 1.735 9.938 9.938 0 0 1-.914-3.318c-.227-2.373.35-4.711 1.407-6.212H3.515z"></path>
  <path d="M11.999 23a.75.75 0 0 1-.742-.647v-.007l-.001-.011v-.002a.746.746 0 0 1-.005-.095C11.253 9.594 15.359 5.245 18.784 3.5H12A.75.75 0 0 1 12 2h11.25a.75.75 0 0 1 .326 1.426c-.332.16-.75.27-1.277.408-1.477.387-3.714.973-5.651 3.202h4.298c.262 0 .504.137.641.359 1.028 1.688 1.516 5.958-.241 9.59-1.144 2.364-3.678 5.325-9.253 6.009a.766.766 0 0 1-.094.006zm3.789-14.828c-1.647 2.496-2.918 6.514-3.03 13.117 4.55-1.351 5.405-5.073 5.559-6.684.283-2.963-.918-5.606-2.173-6.126a.745.745 0 0 1-.356-.307zm2.614.364c1.057 1.501 1.634 3.838 1.408 6.212a9.941 9.941 0 0 1-.913 3.316 8.84 8.84 0 0 0 1.098-1.732c1.423-2.941 1.111-6.326.491-7.796h-2.084z"></path>
  <path d="M12 23a.75.75 0 0 1-.75-.75V2.75a.75.75 0 0 1 1.5 0v19.5A.75.75 0 0 1 12 23z"></path>
</svg>
